HIERARCHY
ROOT hip
{
  OFFSET 0 0 0
  CHANNELS 6 Xposition Yposition Zposition Zrotation Yrotation Xrotation
  JOINT abdomen
  {
    OFFSET 0 20.6881 -0.73152
    CHANNELS 3 Zrotation Xrotation Yrotation
    JOINT chest
    {
      OFFSET 0 11.7043 -0.48768
      CHANNELS 3 Zrotation Xrotation Yrotation
      JOINT neck
      {
        OFFSET 0 22.1894 -2.19456
        CHANNELS 3 Zrotation Xrotation Yrotation
        JOINT head
        {
          OFFSET -0.24384 7.07133 1.2192
          CHANNELS 3 Zrotation Xrotation Yrotation
          JOINT leftEye
          {
            OFFSET 4.14528 8.04674 8.04672
            CHANNELS 3 Zrotation Xrotation Yrotation
            End Site
            {
              OFFSET 1 0 0
            }
          }
          JOINT rightEye
          {
            OFFSET -3.6576 8.04674 8.04672
            CHANNELS 3 Zrotation Xrotation Yrotation
            End Site
            {
              OFFSET 1 0 0
            }
          }
        }
      }
      JOINT rCollar
      {
        OFFSET -2.68224 19.2634 -4.8768
        CHANNELS 3 Zrotation Xrotation Yrotation
        JOINT rShldr
        {
          OFFSET -8.77824 -1.95073 1.46304
          CHANNELS 3 Zrotation Xrotation Yrotation
          JOINT rForeArm
          {
            OFFSET -28.1742 -1.7115 0.48768
            CHANNELS 3 Zrotation Xrotation Yrotation
            JOINT rHand
            {
              OFFSET -22.5879 0.773209 7.07136
              CHANNELS 3 Zrotation Xrotation Yrotation
              JOINT rThumb1
              {
                OFFSET -1.2192 -0.487915 3.41376
                CHANNELS 3 Zrotation Xrotation Yrotation
                JOINT rThumb2
                {
                  OFFSET -3.37035 -0.52449 3.41376
                  CHANNELS 3 Zrotation Xrotation Yrotation
                  End Site
                  {
                    OFFSET -1.78271 -1.18214 1.43049
                  }
                }
              }
              JOINT rIndex1
              {
                OFFSET -7.75947 0.938293 5.60832
                CHANNELS 3 Zrotation Xrotation Yrotation
                JOINT rIndex2
                {
                  OFFSET -2.54057 -0.884171 1.56538
                  CHANNELS 3 Zrotation Xrotation Yrotation
                  End Site
                  {
                    OFFSET -1.62519 -0.234802 1.16502
                  }
                }
              }
              JOINT rMid1
              {
                OFFSET -8.24714 1.18213 3.41376
                CHANNELS 3 Zrotation Xrotation Yrotation
                JOINT rMid2
                {
                  OFFSET -3.10165 -0.590103 1.0647
                  CHANNELS 3 Zrotation Xrotation Yrotation
                  End Site
                  {
                    OFFSET -2.48547 -0.328903 0.83742
                  }
                }
              }
              JOINT rRing1
              {
                OFFSET -8.82822 0.546677 1.51678
                CHANNELS 3 Zrotation Xrotation Yrotation
                JOINT rRing2
                {
                  OFFSET -2.60934 -0.819778 -0.0198488
                  CHANNELS 3 Zrotation Xrotation Yrotation
                  End Site
                  {
                    OFFSET -2.33842 -0.294052 0.168128
                  }
                }
              }
              JOINT rPinky1
              {
                OFFSET -8.27202 -0.0477905 -0.4584
                CHANNELS 3 Zrotation Xrotation Yrotation
                JOINT rPinky2
                {
                  OFFSET -1.82734 -0.647385 -0.700984
                  CHANNELS 3 Zrotation Xrotation Yrotation
                  End Site
                  {
                    OFFSET -1.69225 -0.51767 -0.607171
                  }
                }
              }
            }
          }
        }
      }
      JOINT lCollar
      {
        OFFSET 2.68224 19.2634 -4.8768
        CHANNELS 3 Zrotation Xrotation Yrotation
        JOINT lShldr
        {
          OFFSET 8.77824 -1.95073 1.46304
          CHANNELS 3 Zrotation Xrotation Yrotation
          JOINT lForeArm
          {
            OFFSET 28.1742 -1.7115 0.48768
            CHANNELS 3 Zrotation Xrotation Yrotation
            JOINT lHand
            {
              OFFSET 22.5879 0.773209 7.07136
              CHANNELS 3 Zrotation Xrotation Yrotation
              JOINT lThumb1
              {
                OFFSET 1.2192 -0.487915 3.41376
                CHANNELS 3 Zrotation Xrotation Yrotation
                JOINT lThumb2
                {
                  OFFSET 3.37035 -0.52449 3.41376
                  CHANNELS 3 Zrotation Xrotation Yrotation
                  End Site
                  {
                    OFFSET 1.78271 -1.18214 1.43049
                  }
                }
              }
              JOINT lIndex1
              {
                OFFSET 7.75947 0.938293 5.60832
                CHANNELS 3 Zrotation Xrotation Yrotation
                JOINT lIndex2
                {
                  OFFSET 2.54057 -0.884171 1.56538
                  CHANNELS 3 Zrotation Xrotation Yrotation
                  End Site
                  {
                    OFFSET 1.62519 -0.234802 1.16502
                  }
                }
              }
              JOINT lMid1
              {
                OFFSET 8.24714 1.18213 3.41376
                CHANNELS 3 Zrotation Xrotation Yrotation
                JOINT lMid2
                {
                  OFFSET 3.10165 -0.590103 1.0647
                  CHANNELS 3 Zrotation Xrotation Yrotation
                  End Site
                  {
                    OFFSET 2.48547 -0.328903 0.83742
                  }
                }
              }
              JOINT lRing1
              {
                OFFSET 8.82822 0.546677 1.51678
                CHANNELS 3 Zrotation Xrotation Yrotation
                JOINT lRing2
                {
                  OFFSET 2.60934 -0.819778 -0.0198488
                  CHANNELS 3 Zrotation Xrotation Yrotation
                  End Site
                  {
                    OFFSET 2.33842 -0.294052 0.168128
                  }
                }
              }
              JOINT lPinky1
              {
                OFFSET 8.27202 -0.0477905 -0.4584
                CHANNELS 3 Zrotation Xrotation Yrotation
                JOINT lPinky2
                {
                  OFFSET 1.82734 -0.647385 -0.700984
                  CHANNELS 3 Zrotation Xrotation Yrotation
                  End Site
                  {
                    OFFSET 1.69225 -0.51767 -0.607171
                  }
                }
              }
            }
          }
        }
      }
    }
  }
  JOINT rButtock
  {
    OFFSET -8.77824 4.35084 1.2192
    CHANNELS 3 Zrotation Xrotation Yrotation
    JOINT rThigh
    {
      OFFSET 0 -1.70687 -2.19456
      CHANNELS 3 Zrotation Xrotation Yrotation
      JOINT rShin
      {
        OFFSET 0 -36.8199 0.73152
        CHANNELS 3 Zrotation Xrotation Yrotation
        JOINT rFoot
        {
          OFFSET 0.73152 -45.1104 -5.12064
          CHANNELS 3 Zrotation Xrotation Yrotation
          End Site
          {
            OFFSET -1.1221 -3.69964 12.103
          }
        }
      }
    }
  }
  JOINT lButtock
  {
    OFFSET 8.77824 4.35084 1.2192
    CHANNELS 3 Zrotation Xrotation Yrotation
    JOINT lThigh
    {
      OFFSET 0 -1.70687 -2.19456
      CHANNELS 3 Zrotation Xrotation Yrotation
      JOINT lShin
      {
        OFFSET 0 -36.8199 0.73152
        CHANNELS 3 Zrotation Xrotation Yrotation
        JOINT lFoot
        {
          OFFSET -0.73152 -45.1104 -5.12064
          CHANNELS 3 Zrotation Xrotation Yrotation
          End Site
          {
            OFFSET 1.1221 -3.69964 12.103
          }
        }
      }
    }
  }
}
MOTION
Frames:	4
Frame Time:	0.03333
-1264.0638720074041 21.90997644221528 -2309.150490241199 -4.046011447906494 -6.341344356536865 6.377938747406006 -3.1390273571014404 16.409847259521484 5.197876930236816 5.0488409996032715 -11.108410835266113 1.7500863075256348 -6.322568893432617 19.369915008544922 -1.678124189376831 11.42031192779541 -23.637052536010742 -4.249518871307373 0.5048949122428894 0.03501633182168007 0.5829574465751648 0.6351312398910522 1.160901665687561 1.4361900091171265 -0.08474720269441605 0.9034301042556763 -0.12383740395307541 46.59711456298828 39.93232727050781 17.165122985839844 -25.44815444946289 -22.574935913085938 70.1251449584961 -2.745753049850464 -13.823244094848633 -1.8884762525558472 -0.3227175772190094 0.08998334407806396 0.21255366504192352 -0.17537766695022583 -0.9438143372535706 0.7798728942871094 0.7776413559913635 0.033272624015808105 0.7958628535270691 7.092731952667236 5.538163661956787 -0.6734717488288879 1.689184308052063 0.185066819190979 -0.7814438343048096 0.7632151246070862 0.9260029196739197 3.3344576358795166 0.32497745752334595 -1.254917860031128 -0.12766756117343903 10.502034187316895 1.5763580799102783 1.5500715970993042 -0.6730071902275085 1.057639479637146 0.8717638850212097 1.0338551998138428 -0.36283227801322937 -1.1322898864746094 -1.3069161176681519 -1.044569492340088 -0.7513718605041504 -51.61207962036133 44.14767837524414 -31.714866638183594 24.881128311157227 -23.722925186157227 -65.89302825927734 1.4377703666687012 -11.307406425476074 2.50164532661438 0.9099747538566589 0.4985271096229553 0.06241889297962189 0.9586906433105469 0.6705589890480042 -0.24734677374362946 0.4553748369216919 1.1513668298721313 0.3681687116622925 -7.782956600189209 6.743155479431152 -2.4982423782348633 -0.18160705268383026 0.4318754971027374 0.19325700402259827 -2.0838210582733154 2.1154706478118896 -0.38661572337150574 -0.13367359340190887 0.055015504360198975 0.5301430225372314 -10.016242980957031 0.993291437625885 0.46076637506484985 0.4133090078830719 -0.24559560418128967 0.3111249506473541 0.9084371328353882 -0.19644694030284882 -0.5163313150405884 1.4682843685150146 -0.08659406751394272 -0.7639162540435791 -25.726388931274414 -40.75837326049805 -20.808456420898438 -4.720287799835205 62.401145935058594 4.80398416519165 -4.873402118682861 -9.145308494567871 -13.15732192993164 0.18299159407615662 -0.07229889929294586 -1.457503080368042 33.628692626953125 -42.55305480957031 19.38306999206543 1.1796149015426636 67.18859100341797 -2.3743038177490234 8.199244499206543 -10.997133255004883 15.585576057434082
-1291.396658358131 21.909184140271563 -2358.9118197789485 -4.045199871063232 -6.3416523933410645 6.377518177032471 -3.1393775939941406 16.409454345703125 5.197413921356201 5.048969268798828 -11.107915878295898 1.7495920658111572 -6.323565483093262 19.370121002197266 -1.67690110206604 11.4179105758667 -23.635892868041992 -4.249147891998291 0.5049809813499451 0.035861536860466 0.5823445916175842 0.6349198222160339 1.1613860130310059 1.4370568990707397 -0.08462909609079361 0.9040112495422363 -0.12376709282398224 46.59980773925781 39.932456970214844 17.16379165649414 -25.447175979614258 -22.575777053833008 70.12551879882812 -2.7453653812408447 -13.823749542236328 -1.8877532482147217 -0.322148859500885 0.09072889387607574 0.2125188410282135 -0.17565059661865234 -0.9435587525367737 0.779693603515625 0.7779611349105835 0.033511798828840256 0.7979174852371216 7.091826438903809 5.538203239440918 -0.6736260056495667 1.6892859935760498 0.18443149328231812 -0.7811511754989624 0.7636279463768005 0.9259583950042725 3.3348190784454346 0.32474851608276367 -1.2545017004013062 -0.12700434029102325 10.50212287902832 1.575014352798462 1.5501697063446045 -0.6717031002044678 1.0581823587417603 0.8719991445541382 1.0337787866592407 -0.363195538520813 -1.1324701309204102 -1.3067543506622314 -1.0441433191299438 -0.7518357038497925 -51.61301803588867 44.14607620239258 -31.714008331298828 24.88119888305664 -23.722734451293945 -65.89433288574219 1.4379156827926636 -11.308554649353027 2.5016262531280518 0.9092761874198914 0.49794769287109375 0.06122719869017601 0.9590903520584106 0.6705979704856873 -0.24760690331459045 0.4557150900363922 1.1514155864715576 0.36740967631340027 -7.782702445983887 6.742737770080566 -2.4975383281707764 -0.18220868706703186 0.43117859959602356 0.1937442123889923 -2.0841870307922363 2.1159756183624268 -0.38639914989471436 -0.13483184576034546 0.054889190942049026 0.5302867889404297 -10.01685905456543 0.9935585856437683 0.46153533458709717 0.41484686732292175 -0.2454475611448288 0.31093162298202515 0.9069021940231323 -0.1964331567287445 -0.5166090726852417 1.4669134616851807 -0.08673233538866043 -0.7647236585617065 -25.725231170654297 -40.7587890625 -20.80919075012207 -4.719934940338135 62.40198516845703 4.8039655685424805 -4.873293399810791 -9.145326614379883 -13.155403137207031 0.18334931135177612 -0.0727129727602005 -1.4568250179290771 33.628509521484375 -42.55341720581055 19.382991790771484 1.1820138692855835 67.1885757446289 -2.376544713973999 8.19759464263916 -10.99621295928955 15.585701942443848
-1318.7278191238352 21.907193140128502 -2408.6767419962016 -4.05364990234375 -6.342947006225586 6.379716873168945 -3.1413161754608154 16.412893295288086 5.200690269470215 5.047736644744873 -11.110928535461426 1.7479357719421387 -6.319314479827881 19.367965698242188 -1.6789604425430298 11.420845985412598 -23.637096405029297 -4.255456447601318 0.5042518973350525 0.03705303743481636 0.5810648202896118 0.6341731548309326 1.1576805114746094 1.4337010383605957 -0.08404885232448578 0.9046067595481873 -0.1231454536318779 46.598854064941406 39.93119430541992 17.160858154296875 -25.448659896850586 -22.580215454101562 70.12520599365234 -2.747490882873535 -13.823031425476074 -1.8917064666748047 -0.32268229126930237 0.09161398559808731 0.21011318266391754 -0.18178026378154755 -0.9436741471290588 0.7854737639427185 0.781994640827179 0.032880499958992004 0.7970243096351624 7.0882792472839355 5.534772872924805 -0.6722416281700134 1.6859561204910278 0.18954257667064667 -0.7828635573387146 0.7636345028877258 0.929578423500061 3.3323726654052734 0.32535678148269653 -1.2528020143508911 -0.12215395271778107 10.501723289489746 1.575931191444397 1.548426628112793 -0.6694146990776062 1.0565189123153687 0.8724054098129272 1.0324794054031372 -0.3615162968635559 -1.1414607763290405 -1.3041611909866333 -1.0454528331756592 -0.7468801736831665 -51.61213302612305 44.14606857299805 -31.712377548217773 24.87628936767578 -23.724132537841797 -65.89257049560547 1.4348938465118408 -11.30009651184082 2.5003929138183594 0.9123015403747559 0.4941088855266571 0.06159288436174393 0.9573808312416077 0.6644919514656067 -0.24597160518169403 0.4557558298110962 1.1508491039276123 0.3693622648715973 -7.784347057342529 6.743829250335693 -2.4969873428344727 -0.1833130121231079 0.42697617411613464 0.1955690085887909 -2.087496042251587 2.1165168285369873 -0.3793722987174988 -0.13620217144489288 0.058957431465387344 0.5352058410644531 -10.015438079833984 0.9973016381263733 0.4579305648803711 0.4110575020313263 -0.24234193563461304 0.3128231167793274 0.9082905054092407 -0.1961432546377182 -0.5174552202224731 1.4665824174880981 -0.09402546286582947 -0.7672045230865479 -25.72220230102539 -40.756553649902344 -20.806230545043945 -4.731067180633545 62.40574645996094 4.806241989135742 -4.872537136077881 -9.14611530303955 -13.157910346984863 0.1830599009990692 -0.06948993355035782 -1.4618712663650513 33.63656997680664 -42.55269241333008 19.39106559753418 1.1856920719146729 67.18547058105469 -2.386082887649536 8.200167655944824 -10.995501518249512 15.585169792175293
-1346.0582507668455 21.908217668504005 -2458.444785609905 -4.057973861694336 -6.342020511627197 6.38212776184082 -3.1420018672943115 16.41600227355957 5.203924655914307 5.04617166519165 -11.111385345458984 1.7458751201629639 -6.3148651123046875 19.367422103881836 -1.679344654083252 11.424261093139648 -23.638078689575195 -4.2555389404296875 0.5037773847579956 0.03558600693941116 0.583983302116394 0.633934497833252 1.155739188194275 1.4334814548492432 -0.0823359489440918 0.9014712572097778 -0.12120348960161209 46.596343994140625 39.933509826660156 17.161638259887695 -25.45030975341797 -22.58159065246582 70.1250991821289 -2.748734951019287 -13.823324203491211 -1.8946360349655151 -0.3238242268562317 0.09063678979873657 0.20906288921833038 -0.18304122984409332 -0.9442045092582703 0.7851893305778503 0.7824273705482483 0.03309381753206253 0.7973697781562805 7.085744857788086 5.532466888427734 -0.6722288727760315 1.685690999031067 0.19265665113925934 -0.7858994603157043 0.7629298567771912 0.930868923664093 3.3306620121002197 0.3247853219509125 -1.2533249855041504 -0.12259256839752197 10.501545906066895 1.5757862329483032 1.545857548713684 -0.6692261695861816 1.0559757947921753 0.8705714344978333 1.0308526754379272 -0.35843610763549805 -1.1451084613800049 -1.3012360334396362 -1.0460022687911987 -0.7449702024459839 -51.614227294921875 44.147056579589844 -31.71178436279297 24.875099182128906 -23.72367286682129 -65.88841247558594 1.4348782300949097 -11.29649829864502 2.5021636486053467 0.9134129285812378 0.4912504553794861 0.06194859370589256 0.9565756320953369 0.6624114513397217 -0.24329549074172974 0.45567044615745544 1.1513898372650146 0.36972764134407043 -7.7858734130859375 6.744107723236084 -2.49786376953125 -0.18083596229553223 0.42588821053504944 0.19467954337596893 -2.089836597442627 2.117103338241577 -0.37659120559692383 -0.134398952126503 0.0617312416434288 0.5372374057769775 -10.013592720031738 0.9998211860656738 0.4560502767562866 0.40750762820243835 -0.24281734228134155 0.3135615587234497 0.9115098118782043 -0.19742870330810547 -0.5177732706069946 1.4663935899734497 -0.09676468372344971 -0.7684656977653503 -25.724040985107422 -40.75396728515625 -20.80555534362793 -4.733125686645508 62.406002044677734 4.8067169189453125 -4.873020172119141 -9.146777153015137 -13.161402702331543 0.18193458020687103 -0.06610535830259323 -1.4635097980499268 33.64203643798828 -42.55461120605469 19.39594841003418 1.186066746711731 67.18505096435547 -2.3874967098236084 8.201690673828125 -10.994776725769043 15.583230018615723
